<svg xmlns="http://www.w3.org/2000/svg" viewBox="0 0 1200 900"
     width="1200" height="900" role="img"
     aria-label="Faye — cross-farm GreenReach intelligence">
  <defs>
    <radialGradient id="faye-bg" cx="50%" cy="50%" r="80%">
      <stop offset="0%"   stop-color="#131e33"/>
      <stop offset="55%"  stop-color="#0a1222"/>
      <stop offset="100%" stop-color="#050810"/>
    </radialGradient>
    <radialGradient id="faye-orb" cx="40%" cy="35%" r="60%">
      <stop offset="0%"   stop-color="#fff7d6"/>
      <stop offset="45%"  stop-color="#f59e0b"/>
      <stop offset="100%" stop-color="#b45309"/>
    </radialGradient>
    <radialGradient id="faye-halo" cx="50%" cy="50%" r="38%">
      <stop offset="0%"   stop-color="#f59e0b" stop-opacity="0.32"/>
      <stop offset="100%" stop-color="#f59e0b" stop-opacity="0"/>
    </radialGradient>
  </defs>

  <rect width="1200" height="900" fill="url(#faye-bg)"/>
  <circle cx="916.7" cy="580.3" r="1.1" fill="#fbbf24" opacity="0.85"/><circle cx="812.0" cy="872.4" r="1.1" fill="#c4b5fd" opacity="0.53"/><circle cx="43.3" cy="475.0" r="0.7" fill="#fbbf24" opacity="0.38"/><circle cx="1042.6" cy="294.1" r="0.7" fill="#e5e7eb" opacity="0.52"/><circle cx="626.8" cy="677.6" r="1.1" fill="#c4b5fd" opacity="0.55"/><circle cx="325.1" cy="41.3" r="0.7" fill="#e5e7eb" opacity="0.85"/><circle cx="46.4" cy="234.6" r="0.7" fill="#fbbf24" opacity="0.36"/><circle cx="149.7" cy="114.7" r="0.7" fill="#fbbf24" opacity="0.72"/><circle cx="522.9" cy="214.0" r="2.0" fill="#a5f3fc" opacity="0.46"/><circle cx="350.5" cy="778.9" r="0.7" fill="#e5e7eb" opacity="0.93"/><circle cx="735.9" cy="713.3" r="1.1" fill="#a5f3fc" opacity="0.59"/><circle cx="419.3" cy="142.2" r="1.5" fill="#a5f3fc" opacity="0.86"/><circle cx="133.3" cy="178.3" r="0.9" fill="#c4b5fd" opacity="0.21"/><circle cx="684.2" cy="287.2" r="0.9" fill="#fbbf24" opacity="0.89"/><circle cx="302.2" cy="535.1" r="1.1" fill="#a5f3fc" opacity="0.92"/><circle cx="1188.7" cy="586.0" r="0.7" fill="#c4b5fd" opacity="0.62"/><circle cx="160.4" cy="49.1" r="0.5" fill="#c4b5fd" opacity="0.33"/><circle cx="559.0" cy="543.7" r="0.5" fill="#fbbf24" opacity="0.57"/><circle cx="678.5" cy="141.1" r="0.5" fill="#e5e7eb" opacity="0.86"/><circle cx="595.6" cy="5.7" r="0.7" fill="#e5e7eb" opacity="0.59"/><circle cx="247.3" cy="420.7" r="0.5" fill="#a5f3fc" opacity="0.90"/><circle cx="907.3" cy="449.6" r="2.0" fill="#c4b5fd" opacity="0.38"/><circle cx="1129.3" cy="155.5" r="0.7" fill="#fbbf24" opacity="0.54"/><circle cx="99.4" cy="186.9" r="0.5" fill="#e5e7eb" opacity="0.51"/><circle cx="776.5" cy="455.5" r="2.0" fill="#c4b5fd" opacity="0.65"/><circle cx="1077.3" cy="353.9" r="1.1" fill="#a5f3fc" opacity="0.91"/><circle cx="183.3" cy="171.4" r="1.5" fill="#c4b5fd" opacity="0.61"/><circle cx="595.1" cy="485.1" r="0.5" fill="#fbbf24" opacity="0.39"/><circle cx="762.3" cy="270.7" r="1.1" fill="#e5e7eb" opacity="0.61"/><circle cx="1141.1" cy="629.9" r="0.9" fill="#a5f3fc" opacity="0.80"/><circle cx="726.6" cy="556.4" r="0.7" fill="#fbbf24" opacity="0.24"/><circle cx="944.5" cy="305.9" r="0.7" fill="#fbbf24" opacity="0.75"/><circle cx="273.1" cy="840.6" r="2.0" fill="#fbbf24" opacity="0.39"/><circle cx="975.4" cy="271.4" r="0.7" fill="#c4b5fd" opacity="0.89"/><circle cx="24.6" cy="40.7" r="0.9" fill="#a5f3fc" opacity="0.81"/><circle cx="404.6" cy="125.6" r="0.7" fill="#c4b5fd" opacity="0.75"/><circle cx="17.2" cy="34.7" r="2.0" fill="#fbbf24" opacity="0.50"/><circle cx="701.1" cy="347.8" r="2.0" fill="#a5f3fc" opacity="0.63"/><circle cx="1147.4" cy="808.1" r="0.9" fill="#c4b5fd" opacity="0.40"/><circle cx="390.6" cy="624.7" r="0.9" fill="#fbbf24" opacity="0.80"/><circle cx="495.0" cy="633.9" r="0.9" fill="#fbbf24" opacity="0.54"/><circle cx="342.7" cy="765.3" r="2.0" fill="#c4b5fd" opacity="0.59"/><circle cx="852.1" cy="822.6" r="1.5" fill="#a5f3fc" opacity="0.21"/><circle cx="882.3" cy="833.7" r="1.5" fill="#fbbf24" opacity="0.70"/><circle cx="399.1" cy="180.4" r="1.5" fill="#c4b5fd" opacity="0.42"/><circle cx="711.4" cy="699.6" r="0.9" fill="#c4b5fd" opacity="0.52"/><circle cx="708.5" cy="486.6" r="0.7" fill="#e5e7eb" opacity="0.26"/><circle cx="442.0" cy="644.7" r="2.0" fill="#fbbf24" opacity="0.82"/><circle cx="1162.0" cy="760.5" r="2.0" fill="#e5e7eb" opacity="0.33"/><circle cx="895.5" cy="377.9" r="0.9" fill="#e5e7eb" opacity="0.56"/><circle cx="1121.4" cy="875.0" r="0.5" fill="#e5e7eb" opacity="0.57"/><circle cx="971.8" cy="626.4" r="1.1" fill="#a5f3fc" opacity="0.46"/><circle cx="244.6" cy="236.4" r="0.5" fill="#fbbf24" opacity="0.75"/><circle cx="74.8" cy="308.2" r="1.1" fill="#fbbf24" opacity="0.81"/><circle cx="612.2" cy="753.7" r="0.7" fill="#c4b5fd" opacity="0.47"/><circle cx="19.9" cy="136.5" r="0.5" fill="#fbbf24" opacity="0.31"/><circle cx="1058.2" cy="754.5" r="1.5" fill="#a5f3fc" opacity="0.65"/><circle cx="796.0" cy="268.7" r="1.1" fill="#e5e7eb" opacity="0.40"/><circle cx="398.1" cy="329.2" r="1.5" fill="#c4b5fd" opacity="0.36"/><circle cx="1005.2" cy="398.5" r="1.5" fill="#c4b5fd" opacity="0.94"/><circle cx="1185.9" cy="428.3" r="2.0" fill="#fbbf24" opacity="0.38"/><circle cx="465.8" cy="247.1" r="1.5" fill="#a5f3fc" opacity="0.86"/><circle cx="1030.7" cy="40.0" r="0.5" fill="#e5e7eb" opacity="0.41"/><circle cx="1147.0" cy="312.1" r="0.7" fill="#e5e7eb" opacity="0.37"/><circle cx="75.5" cy="803.7" r="1.5" fill="#e5e7eb" opacity="0.22"/><circle cx="87.3" cy="229.3" r="1.1" fill="#a5f3fc" opacity="0.91"/><circle cx="1069.5" cy="463.5" r="1.5" fill="#a5f3fc" opacity="0.25"/><circle cx="7.2" cy="502.5" r="1.1" fill="#fbbf24" opacity="0.38"/><circle cx="98.1" cy="534.6" r="0.5" fill="#c4b5fd" opacity="0.58"/><circle cx="943.2" cy="46.7" r="1.1" fill="#fbbf24" opacity="0.80"/><circle cx="1104.1" cy="316.5" r="0.9" fill="#e5e7eb" opacity="0.32"/><circle cx="161.0" cy="233.0" r="0.5" fill="#a5f3fc" opacity="0.35"/><circle cx="786.6" cy="640.8" r="1.5" fill="#c4b5fd" opacity="0.89"/><circle cx="228.2" cy="238.3" r="0.7" fill="#e5e7eb" opacity="0.81"/><circle cx="534.1" cy="496.7" r="1.1" fill="#c4b5fd" opacity="0.84"/><circle cx="656.9" cy="265.9" r="0.7" fill="#e5e7eb" opacity="0.78"/><circle cx="429.0" cy="19.7" r="0.5" fill="#c4b5fd" opacity="0.66"/><circle cx="749.6" cy="278.0" r="0.9" fill="#c4b5fd" opacity="0.43"/><circle cx="517.4" cy="492.1" r="1.5" fill="#c4b5fd" opacity="0.55"/><circle cx="141.1" cy="126.4" r="0.9" fill="#c4b5fd" opacity="0.33"/><circle cx="549.1" cy="286.5" r="0.9" fill="#fbbf24" opacity="0.85"/><circle cx="912.6" cy="655.4" r="2.0" fill="#c4b5fd" opacity="0.85"/><circle cx="1100.6" cy="309.2" r="2.0" fill="#e5e7eb" opacity="0.34"/><circle cx="758.7" cy="707.7" r="0.9" fill="#fbbf24" opacity="0.64"/><circle cx="58.8" cy="702.8" r="2.0" fill="#c4b5fd" opacity="0.36"/><circle cx="1184.9" cy="580.8" r="2.0" fill="#fbbf24" opacity="0.50"/><circle cx="193.3" cy="272.7" r="1.5" fill="#fbbf24" opacity="0.89"/><circle cx="852.0" cy="517.0" r="1.1" fill="#fbbf24" opacity="0.94"/><circle cx="634.0" cy="437.9" r="0.7" fill="#e5e7eb" opacity="0.79"/><circle cx="309.4" cy="426.6" r="1.5" fill="#e5e7eb" opacity="0.95"/><circle cx="615.4" cy="619.8" r="1.1" fill="#e5e7eb" opacity="0.86"/><circle cx="1115.3" cy="358.2" r="2.0" fill="#e5e7eb" opacity="0.72"/><circle cx="717.6" cy="485.8" r="1.5" fill="#fbbf24" opacity="0.76"/><circle cx="27.7" cy="672.7" r="1.5" fill="#fbbf24" opacity="0.54"/><circle cx="536.1" cy="631.3" r="2.0" fill="#c4b5fd" opacity="0.56"/><circle cx="51.0" cy="220.4" r="1.1" fill="#a5f3fc" opacity="0.42"/><circle cx="784.8" cy="639.8" r="0.9" fill="#a5f3fc" opacity="0.65"/><circle cx="244.7" cy="328.1" r="1.1" fill="#e5e7eb" opacity="0.52"/><circle cx="1192.9" cy="143.0" r="1.1" fill="#c4b5fd" opacity="0.25"/><circle cx="436.3" cy="694.3" r="1.1" fill="#e5e7eb" opacity="0.93"/><circle cx="138.3" cy="893.8" r="2.0" fill="#fbbf24" opacity="0.45"/><circle cx="616.2" cy="700.8" r="0.7" fill="#a5f3fc" opacity="0.70"/><circle cx="730.1" cy="202.5" r="0.9" fill="#e5e7eb" opacity="0.86"/><circle cx="1112.3" cy="462.5" r="2.0" fill="#fbbf24" opacity="0.21"/><circle cx="666.0" cy="377.4" r="0.9" fill="#c4b5fd" opacity="0.51"/><circle cx="654.6" cy="719.5" r="0.5" fill="#c4b5fd" opacity="0.24"/><circle cx="905.4" cy="250.5" r="1.5" fill="#c4b5fd" opacity="0.32"/><circle cx="325.2" cy="759.8" r="1.5" fill="#a5f3fc" opacity="0.75"/><circle cx="795.2" cy="194.4" r="0.9" fill="#e5e7eb" opacity="0.77"/><circle cx="37.7" cy="69.5" r="2.0" fill="#e5e7eb" opacity="0.28"/><circle cx="708.6" cy="243.0" r="0.7" fill="#a5f3fc" opacity="0.74"/><circle cx="296.7" cy="390.6" r="2.0" fill="#fbbf24" opacity="0.87"/><circle cx="928.3" cy="205.6" r="0.7" fill="#fbbf24" opacity="0.79"/><circle cx="1103.4" cy="855.9" r="0.7" fill="#a5f3fc" opacity="0.22"/><circle cx="135.4" cy="172.9" r="1.1" fill="#fbbf24" opacity="0.64"/><circle cx="277.0" cy="106.3" r="0.5" fill="#a5f3fc" opacity="0.26"/><circle cx="1037.6" cy="861.0" r="1.5" fill="#c4b5fd" opacity="0.50"/><circle cx="451.9" cy="476.6" r="1.1" fill="#a5f3fc" opacity="0.62"/><circle cx="72.4" cy="448.6" r="0.9" fill="#fbbf24" opacity="0.25"/><circle cx="62.7" cy="324.3" r="1.1" fill="#a5f3fc" opacity="0.76"/><circle cx="1095.8" cy="41.1" r="1.1" fill="#c4b5fd" opacity="0.49"/><circle cx="982.9" cy="616.1" r="0.5" fill="#fbbf24" opacity="0.92"/><circle cx="810.9" cy="811.6" r="0.5" fill="#a5f3fc" opacity="0.52"/><circle cx="1127.3" cy="440.8" r="2.0" fill="#c4b5fd" opacity="0.76"/><circle cx="561.9" cy="88.6" r="1.5" fill="#a5f3fc" opacity="0.56"/><circle cx="498.9" cy="882.3" r="1.1" fill="#fbbf24" opacity="0.53"/><circle cx="408.0" cy="485.9" r="0.9" fill="#a5f3fc" opacity="0.81"/><circle cx="137.8" cy="733.2" r="0.9" fill="#fbbf24" opacity="0.69"/><circle cx="678.1" cy="677.1" r="1.5" fill="#c4b5fd" opacity="0.41"/><circle cx="334.7" cy="751.1" r="0.9" fill="#a5f3fc" opacity="0.68"/><circle cx="652.3" cy="45.3" r="2.0" fill="#fbbf24" opacity="0.70"/><circle cx="1044.9" cy="513.4" r="2.0" fill="#fbbf24" opacity="0.30"/><circle cx="345.7" cy="514.9" r="1.1" fill="#c4b5fd" opacity="0.93"/><circle cx="644.2" cy="608.8" r="2.0" fill="#fbbf24" opacity="0.21"/><circle cx="921.2" cy="250.2" r="2.0" fill="#e5e7eb" opacity="0.43"/><circle cx="426.1" cy="819.4" r="0.5" fill="#fbbf24" opacity="0.80"/><circle cx="531.2" cy="418.9" r="0.7" fill="#a5f3fc" opacity="0.79"/><circle cx="769.3" cy="178.2" r="2.0" fill="#a5f3fc" opacity="0.22"/><circle cx="675.8" cy="407.4" r="2.0" fill="#a5f3fc" opacity="0.37"/><circle cx="343.5" cy="511.6" r="0.9" fill="#a5f3fc" opacity="0.30"/><circle cx="869.7" cy="570.9" r="2.0" fill="#fbbf24" opacity="0.89"/><circle cx="278.1" cy="103.8" r="0.9" fill="#e5e7eb" opacity="0.54"/><circle cx="286.4" cy="606.6" r="1.5" fill="#c4b5fd" opacity="0.49"/><circle cx="285.7" cy="505.3" r="1.1" fill="#c4b5fd" opacity="0.73"/><circle cx="657.6" cy="799.1" r="1.5" fill="#c4b5fd" opacity="0.50"/><circle cx="953.1" cy="718.5" r="0.5" fill="#e5e7eb" opacity="0.67"/><circle cx="731.4" cy="782.1" r="0.9" fill="#e5e7eb" opacity="0.50"/><circle cx="684.5" cy="527.9" r="1.1" fill="#e5e7eb" opacity="0.72"/><circle cx="660.0" cy="742.9" r="0.9" fill="#c4b5fd" opacity="0.40"/><circle cx="162.9" cy="252.1" r="1.1" fill="#fbbf24" opacity="0.55"/><circle cx="391.9" cy="320.9" r="0.5" fill="#e5e7eb" opacity="0.75"/><circle cx="160.1" cy="285.0" r="2.0" fill="#fbbf24" opacity="0.49"/><circle cx="1067.1" cy="763.8" r="2.0" fill="#fbbf24" opacity="0.65"/><circle cx="182.4" cy="436.5" r="2.0" fill="#a5f3fc" opacity="0.94"/><circle cx="816.4" cy="393.1" r="0.5" fill="#fbbf24" opacity="0.89"/><circle cx="983.3" cy="726.1" r="1.5" fill="#a5f3fc" opacity="0.92"/><circle cx="1179.7" cy="8.9" r="0.7" fill="#a5f3fc" opacity="0.91"/><circle cx="245.7" cy="333.4" r="2.0" fill="#c4b5fd" opacity="0.25"/><circle cx="914.4" cy="667.9" r="1.5" fill="#fbbf24" opacity="0.61"/><circle cx="213.1" cy="328.5" r="0.9" fill="#fbbf24" opacity="0.38"/><circle cx="967.2" cy="596.0" r="1.1" fill="#c4b5fd" opacity="0.63"/><circle cx="179.8" cy="636.7" r="0.7" fill="#c4b5fd" opacity="0.34"/><circle cx="1025.0" cy="377.7" r="1.5" fill="#c4b5fd" opacity="0.80"/><circle cx="834.9" cy="782.8" r="0.9" fill="#e5e7eb" opacity="0.72"/><circle cx="1153.1" cy="89.5" r="0.5" fill="#e5e7eb" opacity="0.38"/><circle cx="1049.4" cy="867.1" r="1.1" fill="#a5f3fc" opacity="0.45"/><circle cx="251.7" cy="714.8" r="1.1" fill="#c4b5fd" opacity="0.44"/><circle cx="988.5" cy="661.2" r="0.9" fill="#c4b5fd" opacity="0.92"/><circle cx="362.9" cy="597.7" r="0.9" fill="#fbbf24" opacity="0.71"/><circle cx="950.4" cy="328.0" r="1.1" fill="#c4b5fd" opacity="0.93"/><circle cx="12.7" cy="710.6" r="0.5" fill="#e5e7eb" opacity="0.38"/><circle cx="742.0" cy="282.7" r="1.5" fill="#a5f3fc" opacity="0.42"/><circle cx="605.3" cy="126.4" r="0.9" fill="#fbbf24" opacity="0.61"/><circle cx="1085.1" cy="208.5" r="0.7" fill="#a5f3fc" opacity="0.25"/><circle cx="532.8" cy="286.8" r="2.0" fill="#fbbf24" opacity="0.77"/><circle cx="54.5" cy="259.6" r="0.9" fill="#a5f3fc" opacity="0.43"/><circle cx="1075.8" cy="462.7" r="1.5" fill="#c4b5fd" opacity="0.82"/><circle cx="668.0" cy="569.4" r="0.5" fill="#a5f3fc" opacity="0.42"/><circle cx="738.0" cy="412.1" r="0.9" fill="#c4b5fd" opacity="0.26"/><circle cx="554.3" cy="535.8" r="0.9" fill="#c4b5fd" opacity="0.50"/><circle cx="216.7" cy="628.1" r="0.5" fill="#e5e7eb" opacity="0.49"/><circle cx="901.0" cy="161.9" r="0.7" fill="#e5e7eb" opacity="0.54"/><circle cx="481.9" cy="101.2" r="0.9" fill="#e5e7eb" opacity="0.67"/><circle cx="213.2" cy="321.1" r="1.5" fill="#a5f3fc" opacity="0.32"/><circle cx="729.1" cy="83.9" r="1.1" fill="#c4b5fd" opacity="0.51"/><circle cx="216.4" cy="317.3" r="1.1" fill="#e5e7eb" opacity="0.21"/><circle cx="315.9" cy="392.2" r="1.1" fill="#fbbf24" opacity="0.33"/><circle cx="1030.1" cy="260.5" r="1.1" fill="#a5f3fc" opacity="0.89"/><circle cx="662.0" cy="306.0" r="0.9" fill="#e5e7eb" opacity="0.30"/><circle cx="627.4" cy="50.0" r="2.0" fill="#e5e7eb" opacity="0.51"/><circle cx="190.6" cy="862.8" r="1.5" fill="#a5f3fc" opacity="0.49"/><circle cx="41.3" cy="880.9" r="0.5" fill="#c4b5fd" opacity="0.91"/><circle cx="1172.6" cy="388.5" r="1.5" fill="#fbbf24" opacity="0.88"/><circle cx="406.2" cy="240.3" r="0.5" fill="#e5e7eb" opacity="0.28"/><circle cx="530.0" cy="462.1" r="1.5" fill="#fbbf24" opacity="0.70"/><circle cx="678.0" cy="572.8" r="0.5" fill="#e5e7eb" opacity="0.64"/><circle cx="315.5" cy="587.4" r="0.5" fill="#c4b5fd" opacity="0.54"/><circle cx="1142.3" cy="317.4" r="2.0" fill="#a5f3fc" opacity="0.20"/><circle cx="316.6" cy="468.1" r="2.0" fill="#fbbf24" opacity="0.34"/><circle cx="676.8" cy="401.0" r="0.7" fill="#e5e7eb" opacity="0.82"/><circle cx="2.6" cy="781.4" r="0.7" fill="#e5e7eb" opacity="0.90"/><circle cx="470.0" cy="71.3" r="2.0" fill="#e5e7eb" opacity="0.60"/><circle cx="957.2" cy="836.7" r="0.7" fill="#c4b5fd" opacity="0.85"/><circle cx="86.1" cy="687.1" r="0.5" fill="#fbbf24" opacity="0.68"/><circle cx="580.7" cy="467.8" r="1.5" fill="#e5e7eb" opacity="0.85"/><circle cx="941.3" cy="29.5" r="1.1" fill="#fbbf24" opacity="0.20"/><circle cx="979.3" cy="860.2" r="0.9" fill="#e5e7eb" opacity="0.89"/><circle cx="699.9" cy="215.9" r="1.1" fill="#e5e7eb" opacity="0.86"/><circle cx="393.3" cy="337.2" r="0.9" fill="#e5e7eb" opacity="0.73"/><circle cx="153.8" cy="240.8" r="1.1" fill="#c4b5fd" opacity="0.53"/><circle cx="680.8" cy="487.5" r="2.0" fill="#e5e7eb" opacity="0.52"/><circle cx="654.3" cy="38.1" r="1.5" fill="#a5f3fc" opacity="0.91"/><circle cx="1132.2" cy="712.6" r="0.7" fill="#a5f3fc" opacity="0.30"/><circle cx="854.5" cy="634.5" r="0.5" fill="#a5f3fc" opacity="0.74"/><circle cx="10.6" cy="131.8" r="0.9" fill="#c4b5fd" opacity="0.66"/><circle cx="0.2" cy="438.8" r="1.1" fill="#e5e7eb" opacity="0.25"/><circle cx="309.3" cy="140.5" r="2.0" fill="#fbbf24" opacity="0.27"/><circle cx="414.5" cy="641.0" r="0.7" fill="#e5e7eb" opacity="0.36"/><circle cx="627.8" cy="386.3" r="0.9" fill="#e5e7eb" opacity="0.54"/><circle cx="302.3" cy="571.6" r="0.7" fill="#fbbf24" opacity="0.53"/>

  <!-- soft halo behind orb -->
  <ellipse cx="600" cy="430" rx="420" ry="320" fill="url(#faye-halo)"/>

  <!-- network graph -->
  <line x1="220" y1="200" x2="380" y2="150" stroke="#8b5cf6" stroke-width="1.1" stroke-opacity="0.45"/><line x1="380" y1="150" x2="520" y2="260" stroke="#8b5cf6" stroke-width="1.1" stroke-opacity="0.45"/><line x1="220" y1="200" x2="170" y2="380" stroke="#8b5cf6" stroke-width="1.1" stroke-opacity="0.45"/><line x1="170" y1="380" x2="330" y2="450" stroke="#8b5cf6" stroke-width="1.1" stroke-opacity="0.45"/><line x1="330" y1="450" x2="490" y2="380" stroke="#8b5cf6" stroke-width="1.1" stroke-opacity="0.45"/><line x1="520" y1="260" x2="490" y2="380" stroke="#8b5cf6" stroke-width="1.1" stroke-opacity="0.45"/><line x1="820" y1="200" x2="960" y2="290" stroke="#8b5cf6" stroke-width="1.1" stroke-opacity="0.45"/><line x1="960" y1="290" x2="1060" y2="200" stroke="#8b5cf6" stroke-width="1.1" stroke-opacity="0.45"/><line x1="960" y1="290" x2="1070" y2="410" stroke="#8b5cf6" stroke-width="1.1" stroke-opacity="0.45"/><line x1="1060" y1="200" x2="1070" y2="410" stroke="#8b5cf6" stroke-width="1.1" stroke-opacity="0.45"/><line x1="200" y1="620" x2="360" y2="680" stroke="#8b5cf6" stroke-width="1.1" stroke-opacity="0.45"/><line x1="360" y1="680" x2="540" y2="640" stroke="#8b5cf6" stroke-width="1.1" stroke-opacity="0.45"/><line x1="330" y1="450" x2="360" y2="680" stroke="#8b5cf6" stroke-width="1.1" stroke-opacity="0.45"/><line x1="780" y1="640" x2="940" y2="700" stroke="#8b5cf6" stroke-width="1.1" stroke-opacity="0.45"/><line x1="940" y1="700" x2="1050" y2="620" stroke="#8b5cf6" stroke-width="1.1" stroke-opacity="0.45"/><line x1="780" y1="640" x2="540" y2="640" stroke="#8b5cf6" stroke-width="1.1" stroke-opacity="0.45"/><line x1="1050" y1="620" x2="1070" y2="410" stroke="#8b5cf6" stroke-width="1.1" stroke-opacity="0.45"/><line x1="490" y1="380" x2="820" y2="200" stroke="#8b5cf6" stroke-width="1.1" stroke-opacity="0.45"/><line x1="520" y1="260" x2="960" y2="290" stroke="#8b5cf6" stroke-width="1.1" stroke-opacity="0.45"/><line x1="360" y1="680" x2="780" y2="640" stroke="#8b5cf6" stroke-width="1.1" stroke-opacity="0.45"/>
  <circle cx="220" cy="200" r="6" fill="#06b6d4" opacity="0.95"/><circle cx="220" cy="200" r="12" fill="none" stroke="#06b6d4" stroke-opacity="0.45" stroke-width="0.9"/><circle cx="220" cy="200" r="22" fill="none" stroke="#06b6d4" stroke-opacity="0.12" stroke-width="0.6"/><circle cx="380" cy="150" r="6" fill="#f43f5e" opacity="0.95"/><circle cx="380" cy="150" r="12" fill="none" stroke="#f43f5e" stroke-opacity="0.45" stroke-width="0.9"/><circle cx="380" cy="150" r="22" fill="none" stroke="#f43f5e" stroke-opacity="0.12" stroke-width="0.6"/><circle cx="520" cy="260" r="6" fill="#fbbf24" opacity="0.95"/><circle cx="520" cy="260" r="12" fill="none" stroke="#fbbf24" stroke-opacity="0.45" stroke-width="0.9"/><circle cx="520" cy="260" r="22" fill="none" stroke="#fbbf24" stroke-opacity="0.12" stroke-width="0.6"/><circle cx="170" cy="380" r="6" fill="#06b6d4" opacity="0.95"/><circle cx="170" cy="380" r="12" fill="none" stroke="#06b6d4" stroke-opacity="0.45" stroke-width="0.9"/><circle cx="170" cy="380" r="22" fill="none" stroke="#06b6d4" stroke-opacity="0.12" stroke-width="0.6"/><circle cx="330" cy="450" r="6" fill="#f43f5e" opacity="0.95"/><circle cx="330" cy="450" r="12" fill="none" stroke="#f43f5e" stroke-opacity="0.45" stroke-width="0.9"/><circle cx="330" cy="450" r="22" fill="none" stroke="#f43f5e" stroke-opacity="0.12" stroke-width="0.6"/><circle cx="490" cy="380" r="6" fill="#fbbf24" opacity="0.95"/><circle cx="490" cy="380" r="12" fill="none" stroke="#fbbf24" stroke-opacity="0.45" stroke-width="0.9"/><circle cx="490" cy="380" r="22" fill="none" stroke="#fbbf24" stroke-opacity="0.12" stroke-width="0.6"/><circle cx="820" cy="200" r="6" fill="#06b6d4" opacity="0.95"/><circle cx="820" cy="200" r="12" fill="none" stroke="#06b6d4" stroke-opacity="0.45" stroke-width="0.9"/><circle cx="820" cy="200" r="22" fill="none" stroke="#06b6d4" stroke-opacity="0.12" stroke-width="0.6"/><circle cx="960" cy="290" r="6" fill="#f43f5e" opacity="0.95"/><circle cx="960" cy="290" r="12" fill="none" stroke="#f43f5e" stroke-opacity="0.45" stroke-width="0.9"/><circle cx="960" cy="290" r="22" fill="none" stroke="#f43f5e" stroke-opacity="0.12" stroke-width="0.6"/><circle cx="1060" cy="200" r="6" fill="#fbbf24" opacity="0.95"/><circle cx="1060" cy="200" r="12" fill="none" stroke="#fbbf24" stroke-opacity="0.45" stroke-width="0.9"/><circle cx="1060" cy="200" r="22" fill="none" stroke="#fbbf24" stroke-opacity="0.12" stroke-width="0.6"/><circle cx="1070" cy="410" r="6" fill="#06b6d4" opacity="0.95"/><circle cx="1070" cy="410" r="12" fill="none" stroke="#06b6d4" stroke-opacity="0.45" stroke-width="0.9"/><circle cx="1070" cy="410" r="22" fill="none" stroke="#06b6d4" stroke-opacity="0.12" stroke-width="0.6"/><circle cx="200" cy="620" r="6" fill="#f43f5e" opacity="0.95"/><circle cx="200" cy="620" r="12" fill="none" stroke="#f43f5e" stroke-opacity="0.45" stroke-width="0.9"/><circle cx="200" cy="620" r="22" fill="none" stroke="#f43f5e" stroke-opacity="0.12" stroke-width="0.6"/><circle cx="360" cy="680" r="6" fill="#fbbf24" opacity="0.95"/><circle cx="360" cy="680" r="12" fill="none" stroke="#fbbf24" stroke-opacity="0.45" stroke-width="0.9"/><circle cx="360" cy="680" r="22" fill="none" stroke="#fbbf24" stroke-opacity="0.12" stroke-width="0.6"/><circle cx="540" cy="640" r="6" fill="#06b6d4" opacity="0.95"/><circle cx="540" cy="640" r="12" fill="none" stroke="#06b6d4" stroke-opacity="0.45" stroke-width="0.9"/><circle cx="540" cy="640" r="22" fill="none" stroke="#06b6d4" stroke-opacity="0.12" stroke-width="0.6"/><circle cx="780" cy="640" r="6" fill="#f43f5e" opacity="0.95"/><circle cx="780" cy="640" r="12" fill="none" stroke="#f43f5e" stroke-opacity="0.45" stroke-width="0.9"/><circle cx="780" cy="640" r="22" fill="none" stroke="#f43f5e" stroke-opacity="0.12" stroke-width="0.6"/><circle cx="940" cy="700" r="6" fill="#fbbf24" opacity="0.95"/><circle cx="940" cy="700" r="12" fill="none" stroke="#fbbf24" stroke-opacity="0.45" stroke-width="0.9"/><circle cx="940" cy="700" r="22" fill="none" stroke="#fbbf24" stroke-opacity="0.12" stroke-width="0.6"/><circle cx="1050" cy="620" r="6" fill="#06b6d4" opacity="0.95"/><circle cx="1050" cy="620" r="12" fill="none" stroke="#06b6d4" stroke-opacity="0.45" stroke-width="0.9"/><circle cx="1050" cy="620" r="22" fill="none" stroke="#06b6d4" stroke-opacity="0.12" stroke-width="0.6"/>

  
      <line x1="260" y1="430" x2="320" y2="430"
            stroke="#fbbf24" stroke-opacity="0.4"/>
      <line x1="880" y1="430" x2="940" y2="430"
            stroke="#fbbf24" stroke-opacity="0.4"/>
      <line x1="600" y1="90" x2="600" y2="150"
            stroke="#fbbf24" stroke-opacity="0.4"/>
      <line x1="600" y1="710" x2="600" y2="770"
            stroke="#fbbf24" stroke-opacity="0.4"/>
    
  <circle cx="600" cy="430" r="240" fill="none" stroke="#8b5cf6" stroke-width="1.2" opacity="0.28"/>
<circle cx="600" cy="430" r="190" fill="none" stroke="#f43f5e" stroke-width="1.2" opacity="0.3"/>
<circle cx="600" cy="430" r="145" fill="none" stroke="#f59e0b" stroke-width="1.2" opacity="0.45"/>
<circle cx="600" cy="430" r="100" fill="none" stroke="#fbbf24" stroke-width="1.2" opacity="0.3"/>
  
      <circle cx="600" cy="430" r="80" fill="url(#faye-orb)"/>
      <circle cx="580.0" cy="406.0" r="24"
              fill="#fff7d6"/>
    

  
      <g font-family="ui-monospace, 'JetBrains Mono', Menlo, monospace"
         fill="#cbd5e1" opacity="0.9">
        <g transform="translate(72,600)">
          <rect width="220" height="66" rx="8" fill="#0e1a2e"
                stroke="#f59e0b" stroke-opacity="0.3"/>
          <text x="14" y="22" font-size="10" letter-spacing="1"
                fill="#fbbf24">NETWORK STATUS</text>
          <text x="14" y="44" font-size="14">12 farms online</text>
          <text x="14" y="60" font-size="10" fill="#94a3b8">
            last sync · 00:12 ago</text>
        </g>
        <g transform="translate(905,240)">
          <rect width="218" height="66" rx="8" fill="#0e1a2e"
                stroke="#f43f5e" stroke-opacity="0.3"/>
          <text x="14" y="22" font-size="10" letter-spacing="1"
                fill="#f43f5e">ACTIVE ALERTS</text>
          <text x="14" y="44" font-size="14">3 advisories</text>
          <text x="14" y="60" font-size="10" fill="#94a3b8">
            Ontario · BC · Yukon</text>
        </g>
        <g transform="translate(905,660)">
          <rect width="218" height="66" rx="8" fill="#0e1a2e"
                stroke="#06b6d4" stroke-opacity="0.3"/>
          <text x="14" y="22" font-size="10" letter-spacing="1"
                fill="#22d3ee">FLEET YIELD · 7D</text>
          <text x="14" y="44" font-size="14">4,812 kg</text>
          <text x="14" y="60" font-size="10" fill="#94a3b8">
            +6.1% vs prior</text>
        </g>
      </g>

  
  <g font-family="-apple-system, BlinkMacSystemFont, 'Segoe UI', Roboto, sans-serif">
    <text x="72" y="118" font-size="18" letter-spacing="6"
          fill="#fbbf24" font-weight="600"
          opacity="0.9">F.A.Y.E.</text>
    <text x="72" y="156" font-size="12" letter-spacing="4"
          fill="#c4b5fd" opacity="0.75">FARM · AGGREGATION · YIELD · ENGINE</text>
    <text x="72" y="806" font-size="96" font-weight="700"
          fill="#f5f3ff">Faye</text>
    <text x="72" y="852" font-size="20" letter-spacing="2"
          font-weight="500" fill="#fbbf24">Cross-farm GreenReach intelligence</text>
  </g>
</svg>