<svg xmlns="http://www.w3.org/2000/svg" viewBox="0 0 1200 900"
     width="1200" height="900" role="img"
     aria-label="Gwen — research intelligence agent">
  <defs>
    <radialGradient id="gwen-bg" cx="50%" cy="42%" r="85%">
      <stop offset="0%"   stop-color="#0f1f3a"/>
      <stop offset="55%"  stop-color="#0a1426"/>
      <stop offset="100%" stop-color="#060a14"/>
    </radialGradient>
    <radialGradient id="gwen-spot" cx="50%" cy="48%" r="35%">
      <stop offset="0%"   stop-color="#f59e0b" stop-opacity="0.35"/>
      <stop offset="60%"  stop-color="#f59e0b" stop-opacity="0.05"/>
      <stop offset="100%" stop-color="#f59e0b" stop-opacity="0"/>
    </radialGradient>
    <radialGradient id="gwen-orb" cx="40%" cy="35%" r="60%">
      <stop offset="0%"   stop-color="#fef3c7"/>
      <stop offset="50%"  stop-color="#f59e0b"/>
      <stop offset="100%" stop-color="#92400e"/>
    </radialGradient>
  </defs>

  <rect width="1200" height="900" fill="url(#gwen-bg)"/>
  <line x1="0" y1="40" x2="1200" y2="40" stroke="#0f1a2e" stroke-width="1"/><line x1="0" y1="80" x2="1200" y2="80" stroke="#0f1a2e" stroke-width="1"/><line x1="0" y1="120" x2="1200" y2="120" stroke="#0f1a2e" stroke-width="1"/><line x1="0" y1="160" x2="1200" y2="160" stroke="#0f1a2e" stroke-width="1"/><line x1="0" y1="200" x2="1200" y2="200" stroke="#0f1a2e" stroke-width="1"/><line x1="0" y1="240" x2="1200" y2="240" stroke="#0f1a2e" stroke-width="1"/><line x1="0" y1="280" x2="1200" y2="280" stroke="#0f1a2e" stroke-width="1"/><line x1="0" y1="320" x2="1200" y2="320" stroke="#0f1a2e" stroke-width="1"/><line x1="0" y1="360" x2="1200" y2="360" stroke="#0f1a2e" stroke-width="1"/><line x1="0" y1="400" x2="1200" y2="400" stroke="#0f1a2e" stroke-width="1"/><line x1="0" y1="440" x2="1200" y2="440" stroke="#0f1a2e" stroke-width="1"/><line x1="0" y1="480" x2="1200" y2="480" stroke="#0f1a2e" stroke-width="1"/><line x1="0" y1="520" x2="1200" y2="520" stroke="#0f1a2e" stroke-width="1"/><line x1="0" y1="560" x2="1200" y2="560" stroke="#0f1a2e" stroke-width="1"/><line x1="0" y1="600" x2="1200" y2="600" stroke="#0f1a2e" stroke-width="1"/><line x1="0" y1="640" x2="1200" y2="640" stroke="#0f1a2e" stroke-width="1"/><line x1="0" y1="680" x2="1200" y2="680" stroke="#0f1a2e" stroke-width="1"/><line x1="0" y1="720" x2="1200" y2="720" stroke="#0f1a2e" stroke-width="1"/><line x1="0" y1="760" x2="1200" y2="760" stroke="#0f1a2e" stroke-width="1"/><line x1="0" y1="800" x2="1200" y2="800" stroke="#0f1a2e" stroke-width="1"/><line x1="0" y1="840" x2="1200" y2="840" stroke="#0f1a2e" stroke-width="1"/><line x1="0" y1="880" x2="1200" y2="880" stroke="#0f1a2e" stroke-width="1"/><line x1="40" y1="0" x2="40" y2="900" stroke="#0f1a2e" stroke-width="1"/><line x1="80" y1="0" x2="80" y2="900" stroke="#0f1a2e" stroke-width="1"/><line x1="120" y1="0" x2="120" y2="900" stroke="#0f1a2e" stroke-width="1"/><line x1="160" y1="0" x2="160" y2="900" stroke="#0f1a2e" stroke-width="1"/><line x1="200" y1="0" x2="200" y2="900" stroke="#0f1a2e" stroke-width="1"/><line x1="240" y1="0" x2="240" y2="900" stroke="#0f1a2e" stroke-width="1"/><line x1="280" y1="0" x2="280" y2="900" stroke="#0f1a2e" stroke-width="1"/><line x1="320" y1="0" x2="320" y2="900" stroke="#0f1a2e" stroke-width="1"/><line x1="360" y1="0" x2="360" y2="900" stroke="#0f1a2e" stroke-width="1"/><line x1="400" y1="0" x2="400" y2="900" stroke="#0f1a2e" stroke-width="1"/><line x1="440" y1="0" x2="440" y2="900" stroke="#0f1a2e" stroke-width="1"/><line x1="480" y1="0" x2="480" y2="900" stroke="#0f1a2e" stroke-width="1"/><line x1="520" y1="0" x2="520" y2="900" stroke="#0f1a2e" stroke-width="1"/><line x1="560" y1="0" x2="560" y2="900" stroke="#0f1a2e" stroke-width="1"/><line x1="600" y1="0" x2="600" y2="900" stroke="#0f1a2e" stroke-width="1"/><line x1="640" y1="0" x2="640" y2="900" stroke="#0f1a2e" stroke-width="1"/><line x1="680" y1="0" x2="680" y2="900" stroke="#0f1a2e" stroke-width="1"/><line x1="720" y1="0" x2="720" y2="900" stroke="#0f1a2e" stroke-width="1"/><line x1="760" y1="0" x2="760" y2="900" stroke="#0f1a2e" stroke-width="1"/><line x1="800" y1="0" x2="800" y2="900" stroke="#0f1a2e" stroke-width="1"/><line x1="840" y1="0" x2="840" y2="900" stroke="#0f1a2e" stroke-width="1"/><line x1="880" y1="0" x2="880" y2="900" stroke="#0f1a2e" stroke-width="1"/><line x1="920" y1="0" x2="920" y2="900" stroke="#0f1a2e" stroke-width="1"/><line x1="960" y1="0" x2="960" y2="900" stroke="#0f1a2e" stroke-width="1"/><line x1="1000" y1="0" x2="1000" y2="900" stroke="#0f1a2e" stroke-width="1"/><line x1="1040" y1="0" x2="1040" y2="900" stroke="#0f1a2e" stroke-width="1"/><line x1="1080" y1="0" x2="1080" y2="900" stroke="#0f1a2e" stroke-width="1"/><line x1="1120" y1="0" x2="1120" y2="900" stroke="#0f1a2e" stroke-width="1"/><line x1="1160" y1="0" x2="1160" y2="900" stroke="#0f1a2e" stroke-width="1"/>
  <rect width="1200" height="900" fill="url(#gwen-spot)"/>

  <!-- molecular cage -->
  <polygon points="600.0,170.0 825.2,300.0 825.2,560.0 600.0,690.0 374.8,560.0 374.8,300.0" fill="none" stroke="#f59e0b"
           stroke-width="2.2" stroke-opacity="0.7"/>
  <polygon points="705.0,248.1 810.0,430.0 705.0,611.9 495.0,611.9 390.0,430.0 495.0,248.1" fill="none" stroke="#14b8a6"
           stroke-width="1.6" stroke-opacity="0.55"/>

  <circle cx="600" cy="430" r="310" fill="none" stroke="#f59e0b" stroke-width="1.2" opacity="0.18"/>
<circle cx="600" cy="430" r="175" fill="none" stroke="#f59e0b" stroke-width="1.2" opacity="0.35"/>
<circle cx="600" cy="430" r="135" fill="none" stroke="#fbbf24" stroke-width="1.2" opacity="0.25"/>
  
      <circle cx="600" cy="430" r="110" fill="url(#gwen-orb)"/>
      <circle cx="572.5" cy="397.0" r="28"
              fill="#fde68a"/>
    

  <circle cx="600.0" cy="170.0" r="10" fill="#fbbf24"/><circle cx="600.0" cy="170.0" r="18" fill="none" stroke="#fbbf24" stroke-opacity="0.35" stroke-width="1.2"/><circle cx="825.2" cy="300.0" r="10" fill="#fbbf24"/><circle cx="825.2" cy="300.0" r="18" fill="none" stroke="#fbbf24" stroke-opacity="0.35" stroke-width="1.2"/><circle cx="825.2" cy="560.0" r="10" fill="#fbbf24"/><circle cx="825.2" cy="560.0" r="18" fill="none" stroke="#fbbf24" stroke-opacity="0.35" stroke-width="1.2"/><circle cx="600.0" cy="690.0" r="10" fill="#fbbf24"/><circle cx="600.0" cy="690.0" r="18" fill="none" stroke="#fbbf24" stroke-opacity="0.35" stroke-width="1.2"/><circle cx="374.8" cy="560.0" r="10" fill="#fbbf24"/><circle cx="374.8" cy="560.0" r="18" fill="none" stroke="#fbbf24" stroke-opacity="0.35" stroke-width="1.2"/><circle cx="374.8" cy="300.0" r="10" fill="#fbbf24"/><circle cx="374.8" cy="300.0" r="18" fill="none" stroke="#fbbf24" stroke-opacity="0.35" stroke-width="1.2"/><circle cx="705.0" cy="248.1" r="7" fill="#14b8a6"/><circle cx="810.0" cy="430.0" r="7" fill="#14b8a6"/><circle cx="705.0" cy="611.9" r="7" fill="#14b8a6"/><circle cx="495.0" cy="611.9" r="7" fill="#14b8a6"/><circle cx="390.0" cy="430.0" r="7" fill="#14b8a6"/><circle cx="495.0" cy="248.1" r="7" fill="#14b8a6"/><line x1="705.0" y1="248.1" x2="600" y2="430" stroke="#f59e0b" stroke-width="1" stroke-opacity="0.35"/><line x1="810.0" y1="430.0" x2="600" y2="430" stroke="#f59e0b" stroke-width="1" stroke-opacity="0.35"/><line x1="705.0" y1="611.9" x2="600" y2="430" stroke="#f59e0b" stroke-width="1" stroke-opacity="0.35"/><line x1="495.0" y1="611.9" x2="600" y2="430" stroke="#f59e0b" stroke-width="1" stroke-opacity="0.35"/><line x1="390.0" y1="430.0" x2="600" y2="430" stroke="#f59e0b" stroke-width="1" stroke-opacity="0.35"/><line x1="495.0" y1="248.1" x2="600" y2="430" stroke="#f59e0b" stroke-width="1" stroke-opacity="0.35"/>

  
      <g font-family="ui-monospace, 'JetBrains Mono', Menlo, monospace"
         fill="#cbd5e1">
        <g transform="translate(80,220)" opacity="0.88">
          <rect width="210" height="78" rx="8" fill="#101e30"
                stroke="#f59e0b" stroke-opacity="0.25"/>
          <text x="16" y="22" font-size="10" letter-spacing="1"
                fill="#fbbf24">STUDY · 4.3-A</text>
          <text x="16" y="44" font-size="13">Basil · PPFD sweep</text>
          <text x="16" y="64" font-size="11" fill="#94a3b8">
            n=128 · 6 sites · p&lt;0.01</text>
        </g>
        <g transform="translate(80,340)" opacity="0.88">
          <rect width="210" height="78" rx="8" fill="#101e30"
                stroke="#14b8a6" stroke-opacity="0.35"/>
          <text x="16" y="22" font-size="10" letter-spacing="1"
                fill="#5eead4">DATASET · ELN</text>
          <text x="16" y="44" font-size="13">2,418 rows · 37 cols</text>
          <text x="16" y="64" font-size="11" fill="#94a3b8">
            signed · checksum ok</text>
        </g>
        <g transform="translate(80,460)" opacity="0.88">
          <rect width="210" height="78" rx="8" fill="#101e30"
                stroke="#f59e0b" stroke-opacity="0.25"/>
          <text x="16" y="22" font-size="10" letter-spacing="1"
                fill="#fbbf24">GRANT · NSERC-CRD</text>
          <text x="16" y="44" font-size="13">Draft v3 ready</text>
          <text x="16" y="64" font-size="11" fill="#94a3b8">
            deadline · 28 days</text>
        </g>
      </g>
  
      <g transform="translate(890,560)" opacity="0.95">
        <rect x="-20" y="-140" width="240" height="180" rx="10"
              fill="#101e30" stroke="#f59e0b" stroke-opacity="0.25"/>
        <text x="-4" y="-114" font-family="-apple-system, sans-serif"
              font-size="10" letter-spacing="1" fill="#fbbf24">
          PPFD · YIELD</text>
        <line x1="0" y1="0" x2="200" y2="0"    stroke="#334155"/>
        <line x1="0" y1="0" x2="0"   y2="-90"  stroke="#334155"/>
        <polyline points="0,-15 30,-25 60,-20 90,-48 120,-40 150,-65 180,-55 200,-80"
                  fill="none" stroke="#f59e0b" stroke-width="2.5"
                  stroke-linejoin="round"/>
        <polyline points="0,-8 30,-15 60,-32 90,-28 120,-50 150,-58 180,-72 200,-88"
                  fill="none" stroke="#14b8a6" stroke-width="2"
                  stroke-dasharray="5 3"/>
        <g font-family="ui-monospace, Menlo, monospace" font-size="10"
           fill="#94a3b8">
          <text x="0"  y="20">wk1</text>
          <text x="80" y="20">wk4</text>
          <text x="180" y="20">wk8</text>
        </g>
      </g>
  
      <g font-family="ui-monospace, 'JetBrains Mono', Menlo, monospace"
         opacity="0.8">
        <text x="810" y="270" font-size="14" fill="#fbbf24">
          y = β₀ + β₁·PPFD + β₂·VPD + ε</text>
        <text x="810" y="294" font-size="12" fill="#14b8a6">
          R² = 0.87   n = 428</text>
      </g>

  
  <g font-family="-apple-system, BlinkMacSystemFont, 'Segoe UI', Roboto, sans-serif">
    <text x="72" y="118" font-size="18" letter-spacing="6"
          fill="#fbbf24" font-weight="600"
          opacity="0.9">G.W.E.N.</text>
    <text x="72" y="156" font-size="12" letter-spacing="4"
          fill="#94a3b8" opacity="0.75">GRANTS · WORKPLANS · EVIDENCE · NAVIGATION</text>
    <text x="72" y="806" font-size="96" font-weight="700"
          fill="#f1f5f9">Gwen</text>
    <text x="72" y="852" font-size="20" letter-spacing="2"
          font-weight="500" fill="#fbbf24">Research &amp; development partner</text>
  </g>
</svg>