<svg xmlns="http://www.w3.org/2000/svg" viewBox="0 0 640 360" role="img" aria-label="3-tier NFT rack">
  <defs>
    <linearGradient id="sky" x1="0" x2="0" y1="0" y2="1">
      <stop offset="0" stop-color="#0f172a"/>
      <stop offset="1" stop-color="#1e293b"/>
    </linearGradient>
    <linearGradient id="bar" x1="0" x2="0" y1="0" y2="1">
      <stop offset="0" stop-color="#fde68a"/>
      <stop offset="1" stop-color="#f59e0b"/>
    </linearGradient>
    <linearGradient id="channel" x1="0" x2="1" y1="0" y2="0">
      <stop offset="0" stop-color="#475569"/>
      <stop offset="1" stop-color="#64748b"/>
    </linearGradient>
    <radialGradient id="glow" cx="0.5" cy="0.0" r="1">
      <stop offset="0" stop-color="#fde68a" stop-opacity="0.45"/>
      <stop offset="1" stop-color="#fde68a" stop-opacity="0"/>
    </radialGradient>
  </defs>
  <rect width="640" height="360" fill="url(#sky)"/>
  <g transform="translate(90,40)">
    <rect x="0" y="0" width="460" height="6" rx="2" fill="url(#bar)"/>
    <rect x="0" y="0" width="460" height="50" fill="url(#glow)" opacity="0.7"/>
    <rect x="0" y="100" width="460" height="6" rx="2" fill="url(#bar)"/>
    <rect x="0" y="100" width="460" height="50" fill="url(#glow)" opacity="0.7"/>
    <rect x="0" y="200" width="460" height="6" rx="2" fill="url(#bar)"/>
    <rect x="0" y="200" width="460" height="50" fill="url(#glow)" opacity="0.7"/>
    <g fill="url(#channel)">
      <rect x="0" y="60" width="460" height="14" rx="3"/>
      <rect x="0" y="160" width="460" height="14" rx="3"/>
      <rect x="0" y="260" width="460" height="14" rx="3"/>
    </g>
    <g fill="#86efac">
      <g transform="translate(20,48)">
        <circle r="6"/><circle cx="40" r="6"/><circle cx="80" r="6"/><circle cx="120" r="6"/><circle cx="160" r="6"/><circle cx="200" r="6"/><circle cx="240" r="6"/><circle cx="280" r="6"/><circle cx="320" r="6"/><circle cx="360" r="6"/><circle cx="400" r="6"/>
      </g>
      <g transform="translate(20,148)">
        <circle r="6"/><circle cx="40" r="6"/><circle cx="80" r="6"/><circle cx="120" r="6"/><circle cx="160" r="6"/><circle cx="200" r="6"/><circle cx="240" r="6"/><circle cx="280" r="6"/><circle cx="320" r="6"/><circle cx="360" r="6"/><circle cx="400" r="6"/>
      </g>
      <g transform="translate(20,248)">
        <circle r="6"/><circle cx="40" r="6"/><circle cx="80" r="6"/><circle cx="120" r="6"/><circle cx="160" r="6"/><circle cx="200" r="6"/><circle cx="240" r="6"/><circle cx="280" r="6"/><circle cx="320" r="6"/><circle cx="360" r="6"/><circle cx="400" r="6"/>
      </g>
    </g>
    <rect x="-10" y="-10" width="20" height="300" rx="4" fill="#334155"/>
    <rect x="450" y="-10" width="20" height="300" rx="4" fill="#334155"/>
  </g>
</svg>
