<svg xmlns="http://www.w3.org/2000/svg" style="display:none">

  <!-- CATEGORY ICONS (64x64 viewBox, thick strokes, geometric) -->

  <!-- Growing: Simplified seedling/leaf -->
  <symbol id="icon-growing" viewBox="0 0 64 64">
    <path d="M32 56V28" stroke="currentColor" stroke-width="4" stroke-linecap="round" fill="none"/>
    <path d="M32 28c0-12 12-20 24-20-4 16-12 24-24 20" stroke="currentColor" stroke-width="3" stroke-linecap="round" stroke-linejoin="round" fill="none"/>
    <path d="M32 38c0-10-10-16-20-16 3 13 10 20 20 16" stroke="currentColor" stroke-width="3" stroke-linecap="round" stroke-linejoin="round" fill="none"/>
  </symbol>

  <!-- Operations: Gear/cog -->
  <symbol id="icon-operations" viewBox="0 0 64 64">
    <circle cx="32" cy="32" r="10" stroke="currentColor" stroke-width="4" fill="none"/>
    <path d="M32 6v8M32 50v8M6 32h8M50 32h8M13.5 13.5l5.6 5.6M44.9 44.9l5.6 5.6M13.5 50.5l5.6-5.6M44.9 19.1l5.6-5.6" stroke="currentColor" stroke-width="4" stroke-linecap="round"/>
  </symbol>

  <!-- Business: Simple chart bars -->
  <symbol id="icon-business" viewBox="0 0 64 64">
    <rect x="8" y="36" width="12" height="20" rx="2" stroke="currentColor" stroke-width="3" fill="none"/>
    <rect x="26" y="20" width="12" height="36" rx="2" stroke="currentColor" stroke-width="3" fill="none"/>
    <rect x="44" y="8" width="12" height="48" rx="2" stroke="currentColor" stroke-width="3" fill="none"/>
  </symbol>

  <!-- Settings: Sliders -->
  <symbol id="icon-settings" viewBox="0 0 64 64">
    <line x1="12" y1="16" x2="52" y2="16" stroke="currentColor" stroke-width="3" stroke-linecap="round"/>
    <line x1="12" y1="32" x2="52" y2="32" stroke="currentColor" stroke-width="3" stroke-linecap="round"/>
    <line x1="12" y1="48" x2="52" y2="48" stroke="currentColor" stroke-width="3" stroke-linecap="round"/>
    <circle cx="24" cy="16" r="5" stroke="currentColor" stroke-width="3" fill="var(--bg-primary, #0f172a)"/>
    <circle cx="40" cy="32" r="5" stroke="currentColor" stroke-width="3" fill="var(--bg-primary, #0f172a)"/>
    <circle cx="20" cy="48" r="5" stroke="currentColor" stroke-width="3" fill="var(--bg-primary, #0f172a)"/>
  </symbol>

  <!-- Dashboard / Home -->
  <symbol id="icon-home" viewBox="0 0 64 64">

  <!-- Visualization: 3D cube -->
  <symbol id="icon-visualization" viewBox="0 0 64 64">
    <path d="M32 8L8 22v20l24 14 24-14V22L32 8z" stroke="currentColor" stroke-width="3" stroke-linejoin="round" fill="none"/>
    <path d="M32 42L8 28" stroke="currentColor" stroke-width="3" stroke-linecap="round" fill="none" opacity="0.5"/>
    <path d="M32 42l24-14" stroke="currentColor" stroke-width="3" stroke-linecap="round" fill="none" opacity="0.5"/>
    <path d="M32 42v14" stroke="currentColor" stroke-width="3" stroke-linecap="round" fill="none"/>
  </symbol>
    <path d="M8 30L32 8l24 22" stroke="currentColor" stroke-width="4" stroke-linecap="round" stroke-linejoin="round" fill="none"/>
    <path d="M14 28v24a2 2 0 002 2h12V40h8v14h12a2 2 0 002-2V28" stroke="currentColor" stroke-width="3" stroke-linecap="round" stroke-linejoin="round" fill="none"/>
  </symbol>

  <!-- SUB-ITEM ICONS (48x48 viewBox) -->

  <!-- Planting Scheduler -->
  <symbol id="icon-planting-scheduler" viewBox="0 0 48 48">
    <rect x="6" y="10" width="36" height="32" rx="3" stroke="currentColor" stroke-width="2.5" fill="none"/>
    <line x1="6" y1="20" x2="42" y2="20" stroke="currentColor" stroke-width="2.5"/>
    <line x1="16" y1="6" x2="16" y2="14" stroke="currentColor" stroke-width="2.5" stroke-linecap="round"/>
    <line x1="32" y1="6" x2="32" y2="14" stroke="currentColor" stroke-width="2.5" stroke-linecap="round"/>
    <circle cx="16" cy="28" r="2" fill="currentColor"/>
    <circle cx="24" cy="28" r="2" fill="currentColor"/>
    <circle cx="32" cy="28" r="2" fill="currentColor"/>
    <circle cx="16" cy="36" r="2" fill="currentColor"/>
  </symbol>

  <!-- Tray Setup -->
  <symbol id="icon-tray-setup" viewBox="0 0 48 48">
    <rect x="6" y="16" width="36" height="8" rx="2" stroke="currentColor" stroke-width="2.5" fill="none"/>
    <rect x="6" y="28" width="36" height="8" rx="2" stroke="currentColor" stroke-width="2.5" fill="none"/>
    <line x1="18" y1="16" x2="18" y2="24" stroke="currentColor" stroke-width="2"/>
    <line x1="30" y1="16" x2="30" y2="24" stroke="currentColor" stroke-width="2"/>
    <line x1="18" y1="28" x2="18" y2="36" stroke="currentColor" stroke-width="2"/>
    <line x1="30" y1="28" x2="30" y2="36" stroke="currentColor" stroke-width="2"/>
    <path d="M16 12l8-4 8 4" stroke="currentColor" stroke-width="2" stroke-linecap="round" fill="none"/>
  </symbol>

  <!-- Nutrient Management -->
  <symbol id="icon-nutrient" viewBox="0 0 48 48">
    <path d="M24 6v10" stroke="currentColor" stroke-width="2.5" stroke-linecap="round"/>
    <path d="M16 16c0 0 0 12 8 22 8-10 8-22 8-22" stroke="currentColor" stroke-width="2.5" stroke-linecap="round" stroke-linejoin="round" fill="none"/>
    <path d="M16 30h16" stroke="currentColor" stroke-width="2" stroke-linecap="round" opacity="0.5"/>
  </symbol>

  <!-- Farm Inventory (Crops) -->
  <symbol id="icon-crop-inventory" viewBox="0 0 48 48">
    <rect x="8" y="8" width="32" height="32" rx="3" stroke="currentColor" stroke-width="2.5" fill="none"/>
    <line x1="8" y1="18" x2="40" y2="18" stroke="currentColor" stroke-width="2"/>
    <line x1="8" y1="28" x2="40" y2="28" stroke="currentColor" stroke-width="2"/>
    <line x1="20" y1="8" x2="20" y2="40" stroke="currentColor" stroke-width="2"/>
  </symbol>

  <!-- Crop Weight Analytics -->
  <symbol id="icon-weight-analytics" viewBox="0 0 48 48">
    <path d="M24 10L34 22H14L24 10z" stroke="currentColor" stroke-width="2.5" stroke-linejoin="round" fill="none"/>
    <line x1="24" y1="22" x2="24" y2="10" stroke="currentColor" stroke-width="2"/>
    <rect x="10" y="34" width="28" height="6" rx="3" stroke="currentColor" stroke-width="2.5" fill="none"/>
    <line x1="24" y1="22" x2="24" y2="34" stroke="currentColor" stroke-width="2.5"/>
  </symbol>

  <!-- Heat Map -->
  <symbol id="icon-heatmap" viewBox="0 0 48 48">
    <rect x="6" y="6" width="16" height="16" rx="2" stroke="currentColor" stroke-width="2.5" fill="none"/>
    <rect x="26" y="6" width="16" height="16" rx="2" stroke="currentColor" stroke-width="2.5" fill="none"/>
    <rect x="6" y="26" width="16" height="16" rx="2" stroke="currentColor" stroke-width="2.5" fill="none"/>
    <rect x="26" y="26" width="16" height="16" rx="2" stroke="currentColor" stroke-width="2.5" fill="none"/>
    <circle cx="14" cy="14" r="4" fill="currentColor" opacity="0.3"/>
    <circle cx="34" cy="14" r="4" fill="currentColor" opacity="0.6"/>
    <circle cx="14" cy="34" r="4" fill="currentColor" opacity="0.5"/>
    <circle cx="34" cy="34" r="4" fill="currentColor" opacity="0.8"/>
  </symbol>

  <!-- Farm Vitality -->
  <symbol id="icon-vitality" viewBox="0 0 48 48">
    <circle cx="24" cy="24" r="18" stroke="currentColor" stroke-width="2.5" fill="none"/>
    <path d="M24 14v10l7 7" stroke="currentColor" stroke-width="2.5" stroke-linecap="round" stroke-linejoin="round" fill="none"/>
  </symbol>

  <!-- Farm Summary / Environment -->
  <symbol id="icon-farm-summary" viewBox="0 0 48 48">
    <rect x="6" y="6" width="36" height="36" rx="3" stroke="currentColor" stroke-width="2.5" fill="none"/>
    <polyline points="12,32 18,24 24,28 30,16 36,20" stroke="currentColor" stroke-width="2.5" stroke-linecap="round" stroke-linejoin="round" fill="none"/>
  </symbol>

  <!-- Activity Hub -->
  <symbol id="icon-activity-hub" viewBox="0 0 48 48">
    <rect x="10" y="6" width="28" height="36" rx="3" stroke="currentColor" stroke-width="2.5" fill="none"/>
    <line x1="18" y1="16" x2="34" y2="16" stroke="currentColor" stroke-width="2" stroke-linecap="round"/>
    <line x1="18" y1="24" x2="34" y2="24" stroke="currentColor" stroke-width="2" stroke-linecap="round"/>
    <line x1="18" y1="32" x2="28" y2="32" stroke="currentColor" stroke-width="2" stroke-linecap="round"/>
    <circle cx="13" cy="16" r="1.5" fill="currentColor"/>
    <circle cx="13" cy="24" r="1.5" fill="currentColor"/>
    <circle cx="13" cy="32" r="1.5" fill="currentColor"/>
  </symbol>

  <!-- Setup / Update -->
  <symbol id="icon-setup" viewBox="0 0 48 48">
    <circle cx="24" cy="24" r="16" stroke="currentColor" stroke-width="2.5" fill="none"/>
    <path d="M24 14v20M14 24h20" stroke="currentColor" stroke-width="2.5" stroke-linecap="round"/>
  </symbol>

  <!-- Devices -->
  <symbol id="icon-devices" viewBox="0 0 48 48">
    <rect x="14" y="8" width="20" height="32" rx="3" stroke="currentColor" stroke-width="2.5" fill="none"/>
    <line x1="14" y1="14" x2="34" y2="14" stroke="currentColor" stroke-width="2"/>
    <line x1="14" y1="34" x2="34" y2="34" stroke="currentColor" stroke-width="2"/>
    <circle cx="24" cy="38" r="2" fill="currentColor"/>
  </symbol>

  <!-- Supplies / Inventory Management -->
  <symbol id="icon-supplies" viewBox="0 0 48 48">
    <path d="M8 16l16-8 16 8v20l-16 8-16-8V16z" stroke="currentColor" stroke-width="2.5" stroke-linejoin="round" fill="none"/>
    <path d="M8 16l16 8 16-8" stroke="currentColor" stroke-width="2.5" stroke-linejoin="round" fill="none"/>
    <line x1="24" y1="24" x2="24" y2="44" stroke="currentColor" stroke-width="2.5"/>
  </symbol>

  <!-- Calendar -->
  <symbol id="icon-calendar" viewBox="0 0 48 48">
    <rect x="6" y="10" width="36" height="32" rx="3" stroke="currentColor" stroke-width="2.5" fill="none"/>
    <line x1="6" y1="20" x2="42" y2="20" stroke="currentColor" stroke-width="2.5"/>
    <line x1="16" y1="6" x2="16" y2="14" stroke="currentColor" stroke-width="2.5" stroke-linecap="round"/>
    <line x1="32" y1="6" x2="32" y2="14" stroke="currentColor" stroke-width="2.5" stroke-linecap="round"/>
    <rect x="14" y="26" width="6" height="6" rx="1" fill="currentColor" opacity="0.4"/>
    <rect x="26" y="26" width="6" height="6" rx="1" fill="currentColor"/>
  </symbol>

  <!-- Farm Sales POS -->
  <symbol id="icon-pos" viewBox="0 0 48 48">
    <rect x="8" y="8" width="32" height="24" rx="3" stroke="currentColor" stroke-width="2.5" fill="none"/>
    <line x1="8" y1="24" x2="40" y2="24" stroke="currentColor" stroke-width="2"/>
    <path d="M16 32v10M32 32v10M12 42h24" stroke="currentColor" stroke-width="2.5" stroke-linecap="round"/>
  </symbol>

  <!-- Wholesale Orders -->
  <symbol id="icon-wholesale" viewBox="0 0 48 48">
    <rect x="6" y="14" width="36" height="26" rx="3" stroke="currentColor" stroke-width="2.5" fill="none"/>
    <path d="M6 22h36" stroke="currentColor" stroke-width="2"/>
    <path d="M16 8h16l4 6H12l4-6z" stroke="currentColor" stroke-width="2.5" stroke-linejoin="round" fill="none"/>
  </symbol>

  <!-- Procurement -->
  <symbol id="icon-procurement" viewBox="0 0 48 48">
    <circle cx="20" cy="38" r="4" stroke="currentColor" stroke-width="2.5" fill="none"/>
    <circle cx="36" cy="38" r="4" stroke="currentColor" stroke-width="2.5" fill="none"/>
    <path d="M6 8h6l4 20h22l4-14H16" stroke="currentColor" stroke-width="2.5" stroke-linecap="round" stroke-linejoin="round" fill="none"/>
  </symbol>

  <!-- Pricing -->
  <symbol id="icon-pricing" viewBox="0 0 48 48">
    <circle cx="24" cy="24" r="18" stroke="currentColor" stroke-width="2.5" fill="none"/>
    <path d="M20 30c0 2 2 4 4 4s4-2 4-4-2-3-4-4-4-2-4-4 2-4 4-4 4 2 4 4" stroke="currentColor" stroke-width="2.5" stroke-linecap="round" fill="none"/>
    <line x1="24" y1="12" x2="24" y2="16" stroke="currentColor" stroke-width="2.5" stroke-linecap="round"/>
    <line x1="24" y1="32" x2="24" y2="36" stroke="currentColor" stroke-width="2.5" stroke-linecap="round"/>
  </symbol>

  <!-- Crop Value -->
  <symbol id="icon-crop-value" viewBox="0 0 48 48">
    <polyline points="6,38 16,26 24,32 34,14 42,18" stroke="currentColor" stroke-width="2.5" stroke-linecap="round" stroke-linejoin="round" fill="none"/>
    <line x1="6" y1="42" x2="42" y2="42" stroke="currentColor" stroke-width="2.5" stroke-linecap="round"/>
  </symbol>

  <!-- Traceability -->
  <symbol id="icon-traceability" viewBox="0 0 48 48">
    <circle cx="12" cy="12" r="6" stroke="currentColor" stroke-width="2.5" fill="none"/>
    <circle cx="36" cy="12" r="6" stroke="currentColor" stroke-width="2.5" fill="none"/>
    <circle cx="24" cy="36" r="6" stroke="currentColor" stroke-width="2.5" fill="none"/>
    <line x1="17" y1="15" x2="20" y2="31" stroke="currentColor" stroke-width="2" stroke-linecap="round"/>
    <line x1="31" y1="15" x2="28" y2="31" stroke="currentColor" stroke-width="2" stroke-linecap="round"/>
    <line x1="18" y1="12" x2="30" y2="12" stroke="currentColor" stroke-width="2" stroke-linecap="round"/>
  </symbol>

  <!-- Sustainability -->
  <symbol id="icon-sustainability" viewBox="0 0 48 48">
    <circle cx="24" cy="24" r="18" stroke="currentColor" stroke-width="2.5" fill="none"/>
    <path d="M16 28c0-6 4-12 8-16 4 4 8 10 8 16s-4 10-8 10-8-4-8-10z" stroke="currentColor" stroke-width="2.5" fill="none"/>
    <line x1="24" y1="20" x2="24" y2="34" stroke="currentColor" stroke-width="2" stroke-linecap="round"/>
  </symbol>

  <!-- Quality Control -->
  <symbol id="icon-quality" viewBox="0 0 48 48">
    <path d="M10 24l8 8 20-20" stroke="currentColor" stroke-width="4" stroke-linecap="round" stroke-linejoin="round" fill="none"/>
    <rect x="6" y="6" width="36" height="36" rx="4" stroke="currentColor" stroke-width="2.5" fill="none"/>
  </symbol>

  <!-- Accounting -->
  <symbol id="icon-accounting" viewBox="0 0 48 48">
    <rect x="8" y="6" width="32" height="36" rx="3" stroke="currentColor" stroke-width="2.5" fill="none"/>
    <line x1="16" y1="16" x2="32" y2="16" stroke="currentColor" stroke-width="2" stroke-linecap="round"/>
    <line x1="16" y1="24" x2="32" y2="24" stroke="currentColor" stroke-width="2" stroke-linecap="round"/>
    <line x1="16" y1="32" x2="26" y2="32" stroke="currentColor" stroke-width="2" stroke-linecap="round"/>
    <line x1="24" y1="6" x2="24" y2="42" stroke="currentColor" stroke-width="1.5" opacity="0.3"/>
  </symbol>

  <!-- Users -->
  <symbol id="icon-users" viewBox="0 0 48 48">
    <circle cx="24" cy="16" r="8" stroke="currentColor" stroke-width="2.5" fill="none"/>
    <path d="M8 42c0-8 7-14 16-14s16 6 16 14" stroke="currentColor" stroke-width="2.5" stroke-linecap="round" fill="none"/>
  </symbol>

  <!-- Exports -->
  <symbol id="icon-exports" viewBox="0 0 48 48">
    <path d="M24 6v24" stroke="currentColor" stroke-width="2.5" stroke-linecap="round"/>
    <path d="M16 22l8 8 8-8" stroke="currentColor" stroke-width="2.5" stroke-linecap="round" stroke-linejoin="round" fill="none"/>
    <path d="M8 34v6a4 4 0 004 4h24a4 4 0 004-4v-6" stroke="currentColor" stroke-width="2.5" stroke-linecap="round" fill="none"/>
  </symbol>

  <!-- Payments -->
  <symbol id="icon-payments" viewBox="0 0 48 48">
    <rect x="4" y="12" width="40" height="26" rx="4" stroke="currentColor" stroke-width="2.5" fill="none"/>
    <line x1="4" y1="22" x2="44" y2="22" stroke="currentColor" stroke-width="3"/>
    <line x1="12" y1="30" x2="24" y2="30" stroke="currentColor" stroke-width="2" stroke-linecap="round"/>
  </symbol>

  <!-- Help -->
  <symbol id="icon-help" viewBox="0 0 48 48">
    <circle cx="24" cy="24" r="18" stroke="currentColor" stroke-width="2.5" fill="none"/>
    <path d="M18 18c0-4 3-6 6-6s6 2 6 6c0 3-2 4-4 5-1 1-2 2-2 4" stroke="currentColor" stroke-width="2.5" stroke-linecap="round" fill="none"/>
    <circle cx="24" cy="34" r="2" fill="currentColor"/>
  </symbol>

  <!-- EVIE Core -->
  <symbol id="icon-evie" viewBox="0 0 48 48">
    <circle cx="24" cy="24" r="18" stroke="currentColor" stroke-width="2.5" fill="none"/>
    <circle cx="24" cy="24" r="8" stroke="currentColor" stroke-width="2" fill="none"/>
    <circle cx="24" cy="24" r="3" fill="currentColor"/>
  </symbol>

  <!-- Search / magnifier -->
  <symbol id="icon-search" viewBox="0 0 48 48">
    <circle cx="22" cy="22" r="14" stroke="currentColor" stroke-width="3" fill="none"/>
    <line x1="32" y1="32" x2="42" y2="42" stroke="currentColor" stroke-width="3" stroke-linecap="round"/>
  </symbol>

  <!-- Back arrow -->
  <symbol id="icon-back" viewBox="0 0 48 48">
    <path d="M30 12L18 24l12 12" stroke="currentColor" stroke-width="3" stroke-linecap="round" stroke-linejoin="round" fill="none"/>
  </symbol>

  <!-- GWEN (Research) -->
  <symbol id="icon-gwen" viewBox="0 0 48 48">
    <rect x="8" y="8" width="32" height="32" rx="4" stroke="currentColor" stroke-width="2.5" fill="none"/>
    <path d="M16 20h16M16 28h10" stroke="currentColor" stroke-width="2.5" stroke-linecap="round"/>
    <circle cx="34" cy="28" r="4" stroke="currentColor" stroke-width="2" fill="none"/>
  </symbol>

  <!-- Research Workspace -->
  <symbol id="icon-research" viewBox="0 0 48 48">
    <path d="M20 8v12l-6 8v8h20v-8l-6-8V8" stroke="currentColor" stroke-width="2.5" stroke-linejoin="round" fill="none"/>
    <line x1="16" y1="8" x2="32" y2="8" stroke="currentColor" stroke-width="2.5" stroke-linecap="round"/>
    <circle cx="24" cy="32" r="3" fill="currentColor" opacity="0.4"/>
  </symbol>

</svg>
