<svg xmlns="http://www.w3.org/2000/svg" viewBox="0 0 640 360" role="img" aria-label="Drip rail for fruiting crops, 8 feet">
  <defs>
    <linearGradient id="sky" x1="0" x2="0" y1="0" y2="1">
      <stop offset="0" stop-color="#0f172a"/>
      <stop offset="1" stop-color="#1e293b"/>
    </linearGradient>
    <linearGradient id="rail" x1="0" x2="0" y1="0" y2="1">
      <stop offset="0" stop-color="#64748b"/>
      <stop offset="1" stop-color="#334155"/>
    </linearGradient>
    <linearGradient id="bar" x1="0" x2="0" y1="0" y2="1">
      <stop offset="0" stop-color="#fca5a5"/>
      <stop offset="1" stop-color="#ef4444"/>
    </linearGradient>
    <radialGradient id="glow" cx="0.5" cy="0.0" r="1">
      <stop offset="0" stop-color="#fecaca" stop-opacity="0.3"/>
      <stop offset="1" stop-color="#fecaca" stop-opacity="0"/>
    </radialGradient>
  </defs>
  <rect width="640" height="360" fill="url(#sky)"/>
  <rect x="60" y="40" width="520" height="6" rx="2" fill="url(#bar)"/>
  <rect x="60" y="40" width="520" height="80" fill="url(#glow)"/>
  <g transform="translate(80,120)">
    <rect x="0" y="170" width="480" height="14" rx="3" fill="url(#rail)"/>
    <g>
      <g transform="translate(40,0)">
        <rect x="-6" y="0" width="4" height="170" fill="#475569"/>
        <g transform="translate(-4,30)" fill="#166534">
          <ellipse cx="0" cy="0" rx="18" ry="24"/>
          <ellipse cx="-10" cy="40" rx="16" ry="22"/>
          <ellipse cx="10" cy="80" rx="16" ry="22"/>
          <ellipse cx="-6" cy="120" rx="14" ry="20"/>
        </g>
        <circle cx="4" cy="50" r="6" fill="#ef4444"/>
        <circle cx="-2" cy="95" r="5" fill="#ef4444"/>
        <circle cx="14" cy="130" r="5" fill="#ef4444"/>
      </g>
      <use xlink:href="#" x="0" y="0"/>
    </g>
    <g fill="#166534" transform="translate(140,0)">
      <g>
        <rect x="-6" y="0" width="4" height="170" fill="#475569"/>
        <ellipse cx="-4" cy="30" rx="18" ry="24"/>
        <ellipse cx="-14" cy="70" rx="16" ry="22"/>
        <ellipse cx="6" cy="110" rx="16" ry="22"/>
        <ellipse cx="-10" cy="150" rx="14" ry="20"/>
        <circle cx="0" cy="55" r="6" fill="#ef4444"/>
        <circle cx="-6" cy="100" r="5" fill="#ef4444"/>
        <circle cx="12" cy="140" r="5" fill="#ef4444"/>
      </g>
    </g>
    <g fill="#166534" transform="translate(240,0)">
      <rect x="-6" y="0" width="4" height="170" fill="#475569"/>
      <ellipse cx="-4" cy="30" rx="18" ry="24"/>
      <ellipse cx="-14" cy="70" rx="16" ry="22"/>
      <ellipse cx="6" cy="110" rx="16" ry="22"/>
      <ellipse cx="-10" cy="150" rx="14" ry="20"/>
      <circle cx="0" cy="55" r="6" fill="#ef4444"/>
      <circle cx="-6" cy="100" r="5" fill="#ef4444"/>
      <circle cx="12" cy="140" r="5" fill="#ef4444"/>
    </g>
    <g fill="#166534" transform="translate(340,0)">
      <rect x="-6" y="0" width="4" height="170" fill="#475569"/>
      <ellipse cx="-4" cy="30" rx="18" ry="24"/>
      <ellipse cx="-14" cy="70" rx="16" ry="22"/>
      <ellipse cx="6" cy="110" rx="16" ry="22"/>
      <ellipse cx="-10" cy="150" rx="14" ry="20"/>
      <circle cx="0" cy="55" r="6" fill="#ef4444"/>
      <circle cx="-6" cy="100" r="5" fill="#ef4444"/>
      <circle cx="12" cy="140" r="5" fill="#ef4444"/>
    </g>
    <g fill="#166534" transform="translate(440,0)">
      <rect x="-6" y="0" width="4" height="170" fill="#475569"/>
      <ellipse cx="-4" cy="30" rx="18" ry="24"/>
      <ellipse cx="-14" cy="70" rx="16" ry="22"/>
      <ellipse cx="6" cy="110" rx="16" ry="22"/>
      <ellipse cx="-10" cy="150" rx="14" ry="20"/>
      <circle cx="0" cy="55" r="6" fill="#ef4444"/>
      <circle cx="-6" cy="100" r="5" fill="#ef4444"/>
      <circle cx="12" cy="140" r="5" fill="#ef4444"/>
    </g>
  </g>
</svg>
