<svg xmlns="http://www.w3.org/2000/svg" viewBox="0 0 640 360" role="img" aria-label="5-tier vertical microgreen rack">
  <defs>
    <linearGradient id="sky" x1="0" x2="0" y1="0" y2="1">
      <stop offset="0" stop-color="#0f172a"/>
      <stop offset="1" stop-color="#1e293b"/>
    </linearGradient>
    <linearGradient id="tray" x1="0" x2="0" y1="0" y2="1">
      <stop offset="0" stop-color="#4ade80"/>
      <stop offset="1" stop-color="#16a34a"/>
    </linearGradient>
    <linearGradient id="bar" x1="0" x2="0" y1="0" y2="1">
      <stop offset="0" stop-color="#fef08a"/>
      <stop offset="1" stop-color="#eab308"/>
    </linearGradient>
    <radialGradient id="glow" cx="0.5" cy="0.0" r="1">
      <stop offset="0" stop-color="#fef08a" stop-opacity="0.4"/>
      <stop offset="1" stop-color="#fef08a" stop-opacity="0"/>
    </radialGradient>
  </defs>
  <rect width="640" height="360" fill="url(#sky)"/>
  <g transform="translate(150,20)">
    <rect x="-20" y="0" width="20" height="330" rx="4" fill="#334155"/>
    <rect x="340" y="0" width="20" height="330" rx="4" fill="#334155"/>
    <g>
      <g transform="translate(0,10)">
        <rect x="0" y="0" width="340" height="6" rx="2" fill="url(#bar)"/>
        <rect x="0" y="0" width="340" height="30" fill="url(#glow)"/>
        <rect x="0" y="38" width="340" height="18" rx="3" fill="url(#tray)"/>
      </g>
      <g transform="translate(0,72)">
        <rect x="0" y="0" width="340" height="6" rx="2" fill="url(#bar)"/>
        <rect x="0" y="0" width="340" height="30" fill="url(#glow)"/>
        <rect x="0" y="38" width="340" height="18" rx="3" fill="url(#tray)"/>
      </g>
      <g transform="translate(0,134)">
        <rect x="0" y="0" width="340" height="6" rx="2" fill="url(#bar)"/>
        <rect x="0" y="0" width="340" height="30" fill="url(#glow)"/>
        <rect x="0" y="38" width="340" height="18" rx="3" fill="url(#tray)"/>
      </g>
      <g transform="translate(0,196)">
        <rect x="0" y="0" width="340" height="6" rx="2" fill="url(#bar)"/>
        <rect x="0" y="0" width="340" height="30" fill="url(#glow)"/>
        <rect x="0" y="38" width="340" height="18" rx="3" fill="url(#tray)"/>
      </g>
      <g transform="translate(0,258)">
        <rect x="0" y="0" width="340" height="6" rx="2" fill="url(#bar)"/>
        <rect x="0" y="0" width="340" height="30" fill="url(#glow)"/>
        <rect x="0" y="38" width="340" height="18" rx="3" fill="url(#tray)"/>
      </g>
    </g>
  </g>
</svg>
